<svg width="25" height="25" viewBox="0 0 25 25" fill="none" xmlns="http://www.w3.org/2000/svg">
<g clip-path="url(#clip0_1_162)">
<mask id="mask0_1_162" style="mask-type:luminance" maskUnits="userSpaceOnUse" x="0" y="0" width="25" height="25">
<path d="M24.5384 10.2273H12.8906V15.0568H19.5952C18.9702 18.125 16.3565 19.8864 12.8906 19.8864C8.79972 19.8864 5.50426 16.5909 5.50426 12.5C5.50426 8.40909 8.79972 5.11364 12.8906 5.11364C14.652 5.11364 16.2429 5.73864 17.4929 6.76137L21.1293 3.125C18.9134 1.19318 16.0724 0 12.8906 0C5.95881 0 0.390625 5.56818 0.390625 12.5C0.390625 19.4318 5.95881 25 12.8906 25C19.1406 25 24.8225 20.4546 24.8225 12.5C24.8225 11.7614 24.7088 10.9659 24.5384 10.2273Z" fill="white"/>
</mask>
<g mask="url(#mask0_1_162)">
<path d="M-0.745728 19.8864V5.11365L8.91337 12.5L-0.745728 19.8864Z" fill="#FBBC05"/>
</g>
<mask id="mask1_1_162" style="mask-type:luminance" maskUnits="userSpaceOnUse" x="0" y="0" width="25" height="25">
<path d="M24.5384 10.2273H12.8906V15.0568H19.5952C18.9702 18.125 16.3565 19.8864 12.8906 19.8864C8.79972 19.8864 5.50426 16.5909 5.50426 12.5C5.50426 8.40909 8.79972 5.11364 12.8906 5.11364C14.652 5.11364 16.2429 5.73864 17.4929 6.76137L21.1293 3.125C18.9134 1.19318 16.0724 0 12.8906 0C5.95881 0 0.390625 5.56818 0.390625 12.5C0.390625 19.4318 5.95881 25 12.8906 25C19.1406 25 24.8225 20.4546 24.8225 12.5C24.8225 11.7614 24.7088 10.9659 24.5384 10.2273Z" fill="white"/>
</mask>
<g mask="url(#mask1_1_162)">
<path d="M-0.745728 5.11365L8.91337 12.5L12.8906 9.03411L26.527 6.8182V-1.13635H-0.745728V5.11365Z" fill="#EA4335"/>
</g>
<mask id="mask2_1_162" style="mask-type:luminance" maskUnits="userSpaceOnUse" x="0" y="0" width="25" height="25">
<path d="M24.5384 10.2273H12.8906V15.0568H19.5952C18.9702 18.125 16.3565 19.8864 12.8906 19.8864C8.79972 19.8864 5.50426 16.5909 5.50426 12.5C5.50426 8.40909 8.79972 5.11364 12.8906 5.11364C14.652 5.11364 16.2429 5.73864 17.4929 6.76137L21.1293 3.125C18.9134 1.19318 16.0724 0 12.8906 0C5.95881 0 0.390625 5.56818 0.390625 12.5C0.390625 19.4318 5.95881 25 12.8906 25C19.1406 25 24.8225 20.4546 24.8225 12.5C24.8225 11.7614 24.7088 10.9659 24.5384 10.2273Z" fill="white"/>
</mask>
<g mask="url(#mask2_1_162)">
<path d="M-0.745728 19.8864L16.2997 6.8182L20.7884 7.38638L26.527 -1.13635V26.1364H-0.745728V19.8864Z" fill="#34A853"/>
</g>
<mask id="mask3_1_162" style="mask-type:luminance" maskUnits="userSpaceOnUse" x="0" y="0" width="25" height="25">
<path d="M24.5384 10.2273H12.8906V15.0568H19.5952C18.9702 18.125 16.3565 19.8864 12.8906 19.8864C8.79972 19.8864 5.50426 16.5909 5.50426 12.5C5.50426 8.40909 8.79972 5.11364 12.8906 5.11364C14.652 5.11364 16.2429 5.73864 17.4929 6.76137L21.1293 3.125C18.9134 1.19318 16.0724 0 12.8906 0C5.95881 0 0.390625 5.56818 0.390625 12.5C0.390625 19.4318 5.95881 25 12.8906 25C19.1406 25 24.8225 20.4546 24.8225 12.5C24.8225 11.7614 24.7088 10.9659 24.5384 10.2273Z" fill="white"/>
</mask>
<g mask="url(#mask3_1_162)">
<path d="M26.527 26.1364L8.91335 12.5L6.64062 10.7955L26.527 5.11365V26.1364Z" fill="#4285F4"/>
</g>
</g>
<defs>
<clipPath id="clip0_1_162">
<rect width="25" height="25" fill="white"/>
</clipPath>
</defs>
</svg>
